<?xml version="1.0" encoding="utf-8"?>
<!-- Generator: Adobe Illustrator 16.0.3, SVG Export Plug-In . SVG Version: 6.00 Build 0)  -->
<!DOCTYPE svg PUBLIC "-//W3C//DTD SVG 1.1//EN" "http://www.w3.org/Graphics/SVG/1.1/DTD/svg11.dtd">
<svg version="1.1" id="Calque_1" xmlns="http://www.w3.org/2000/svg" xmlns:xlink="http://www.w3.org/1999/xlink" x="0px" y="0px"
	 width="535.889px" height="202.468px" viewBox="0 0 535.889 202.468" enable-background="new 0 0 535.889 202.468"
	 xml:space="preserve">
<path fill="#4A6EB4" d="M286.879,97.59c-0.188-2.578-0.276-5.186-0.596-7.77c-1.239-10.375-4.264-20.605-8.578-30.344
	c-1.199-2.373-2.382-4.766-3.64-7.123l-0.944-1.771l-1.168-1.803l-2.371-3.592l-2.424-3.561c-0.201-0.283-0.419-0.617-0.606-0.855
	l-0.545-0.66l-1.089-1.322l-4.367-5.281c-1.123-1.275-0.414-0.455-0.711-0.783l-0.179-0.176l-0.357-0.352l-0.717-0.701l-1.436-1.398
	l-2.88-2.785c-1.86-1.92-3.979-3.557-6.082-5.207l-3.149-2.477l-1.578-1.232l-1.681-1.088l-6.806-4.201
	c-2.311-1.311-4.748-2.396-7.116-3.582c-1.199-0.563-2.369-1.189-3.592-1.689l-3.713-1.389l-3.726-1.322
	c-1.232-0.459-2.479-0.869-3.764-1.156c-2.541-0.635-5.077-1.268-7.609-1.9c-2.549-0.523-5.133-0.859-7.693-1.219
	c-1.284-0.152-2.554-0.385-3.841-0.463l-3.857-0.17l-3.837-0.148L184.317,0c-0.637,0.008-1.274,0.057-1.91,0.084
	c-2.544,0.119-5.073,0.277-7.582,0.465c-10.008,1.236-19.705,3.496-28.578,7.34l-1.678,0.65l-1.617,0.797l-3.203,1.607
	c-2.105,1.113-4.259,2.066-6.197,3.418c-1.965,1.266-3.921,2.527-5.866,3.779c-1.931,1.277-3.806,2.914-5.659,4.346
	c-4.006,2.975-6.471,5.834-9.437,8.689l-1.377,1.35l-1.055,1.256l-2.086,2.494c-1.347,1.688-2.818,3.229-4.005,4.992
	c-1.183,1.754-2.358,3.494-3.525,5.223c-0.563,0.871-1.186,1.691-1.687,2.594c-0.489,0.906-0.977,1.811-1.462,2.711
	c-0.958,1.789-1.908,3.566-2.851,5.33c-0.817,1.822-1.539,3.672-2.305,5.467c-1.665,3.529-2.644,7.258-3.777,10.805
	c-0.622,1.758-0.936,3.592-1.316,5.375c-0.385,1.775-0.767,3.535-1.145,5.275c-1.72,10.183-1.722,19.803-0.747,28.532h3.258
	c-0.041-1.217,0.031-2.449,0.089-3.696c0.075-1.488,0.152-2.998,0.23-4.527c0.006-1.525,0.353-3.055,0.55-4.604
	c0.237-1.541,0.479-3.102,0.723-4.682c0.695-3.115,1.565-6.264,2.439-9.443c2.164-6.266,4.854-12.6,8.638-18.521
	c0.945-1.48,1.872-2.977,2.858-4.443c1.101-1.389,2.21-2.789,3.327-4.199l1.663-2.109c0.563-0.697,1.246-1.311,1.862-1.971
	c1.254-1.293,2.518-2.596,3.789-3.908c1.254-1.313,2.777-2.393,4.149-3.605l2.109-1.775l1.053-0.891
	c0.317-0.273-0.285,0.248-0.164,0.154l0.155-0.107l0.312-0.215l0.623-0.432c3.29-2.217,6.812-4.953,9.866-6.287
	c1.609-0.799,3.033-1.709,4.753-2.438c1.726-0.715,3.46-1.434,5.203-2.156c1.688-0.811,3.559-1.223,5.348-1.797l2.694-0.838
	l1.343-0.424l1.393-0.283c1.841-0.383,3.689-0.768,5.546-1.152c1.848-0.373,3.771-0.426,5.637-0.691l2.811-0.346l2.85-0.064
	c1.899-0.006,3.785-0.158,5.682-0.07c7.602,0.227,15.113,1.621,22.409,3.637c1.79,0.613,3.583,1.23,5.379,1.848
	c0.91,0.264,1.779,0.643,2.632,1.063l2.584,1.182l2.604,1.119c0.856,0.398,1.658,0.914,2.491,1.359
	c1.636,0.951,3.343,1.771,4.934,2.791c3.087,2.199,6.291,4.199,9.129,6.725c1.472,1.188,2.976,2.34,4.25,3.762l2.008,2.016
	l1.01,1.004l0.506,0.498l0.254,0.25l0.122,0.121l3.992,4.779l1.101,1.313l0.551,0.656c0.166,0.209,0.241,0.367,0.367,0.551
	c0.453,0.719,0.923,1.422,1.4,2.121l1.45,2.086l0.742,1.035l0.681,1.238c0.896,1.66,1.867,3.281,2.818,4.918
	c0.884,1.67,1.561,3.438,2.372,5.145c0.375,0.867,0.823,1.709,1.148,2.594l0.892,2.689c0.293,0.898,0.624,1.785,0.947,2.676
	c0.349,0.885,0.653,1.781,0.841,2.709c0.466,1.84,0.932,3.676,1.396,5.508c1.353,7.436,2.18,15.026,1.735,22.612
	c-0.069,1.895-0.375,3.762-0.537,5.652c-0.104,0.941-0.176,1.891-0.299,2.828l-0.576,2.77c-0.429,1.836-0.644,3.742-1.163,5.555
	c-0.536,1.813-1.071,3.621-1.604,5.426c-2.529,7.051-5.475,14.09-9.779,20.184c-1.895,3.25-4.41,5.977-6.695,8.902l-0.436,0.543
	l-0.218,0.27l-0.108,0.137c-0.099,0.105,0.493-0.418,0.178-0.133l-1.07,1.063l-2.133,2.121l-2.118,2.102
	c-0.702,0.691-1.415,1.453-2.075,1.934c-1.35,1.109-2.69,2.211-4.022,3.305c-0.685,0.543-1.304,1.145-2.042,1.645l-2.237,1.484
	c-1.496,0.996-2.981,1.988-4.455,2.969c-1.54,0.863-3.11,1.656-4.657,2.484c-6.21,3.285-12.742,5.434-19.158,7.086
	c-3.24,0.609-6.448,1.219-9.61,1.652c-1.593,0.117-3.168,0.23-4.723,0.34c-1.56,0.07-3.111,0.289-4.633,0.168
	c-1.53-0.047-3.039-0.094-4.529-0.145c-1.492-0.051-2.979-0.039-4.411-0.285c-1.443-0.195-2.866-0.391-4.268-0.578
	c-1.396-0.23-2.805-0.324-4.124-0.711c-2.663-0.668-5.271-1.25-7.761-1.926c-2.43-0.848-4.785-1.664-7.028-2.504
	c-2.246-0.836-4.246-1.988-6.247-2.898c-0.991-0.48-1.959-0.945-2.903-1.402c-0.896-0.547-1.77-1.078-2.62-1.594
	c-1.696-1.051-3.303-2.043-4.814-2.977c-1.468-1-2.732-2.09-3.971-3.023c-1.222-0.957-2.354-1.844-3.39-2.652
	c-1.024-0.824-1.821-1.727-2.606-2.453c-3.068-2.988-4.705-4.582-4.705-4.582s1.623,1.609,4.666,4.625
	c0.329,0.309,0.667,0.658,1.017,1.012c0.341,0.344,0.721,0.686,1.111,1.037c0.002,0.002,0.005,0.004,0.008,0.006
	c0.155,0.141,0.286,0.281,0.453,0.418c0.514,0.422,1.051,0.863,1.611,1.324c0.551,0.451,1.124,0.922,1.72,1.41
	c0.114,0.09,0.236,0.195,0.352,0.289c1.106,0.9,2.242,1.902,3.552,2.848c1.477,1,3.045,2.066,4.702,3.191
	c6.707,4.336,15.395,9.066,26.261,12.211c10.812,3.164,23.714,5.125,37.936,3.93c1.767-0.227,3.552-0.461,5.355-0.695
	c1.811-0.23,3.665-0.387,5.469-0.863c3.631-0.836,7.432-1.5,11.09-2.863c1.857-0.602,3.758-1.176,5.646-1.836
	c1.836-0.793,3.688-1.594,5.553-2.398c0.938-0.41,1.88-0.82,2.825-1.23c0.944-0.426,1.861-1.008,2.802-1.516
	c1.881-1.066,3.774-2.145,5.682-3.227c1.021-0.547,1.771-1.113,2.595-1.676l2.457-1.699l2.473-1.707l1.242-0.859l1.549-1.316
	c3.287-2.887,6.847-5.664,9.832-9.094c6.428-6.457,11.841-14.254,16.403-22.742c4.576-8.531,7.612-18.023,9.689-27.898
	c0.401-2.484,0.732-5,1.079-7.523c0.08-0.633,0.182-1.266,0.242-1.898l0.092-1.911l0.17-3.84l0.151-3.861
	C287.051,100.17,286.925,98.885,286.879,97.59z"/>
<g>
	<g>
		<path d="M341.536,123.19c-1.16,0.48-3.08,0.918-4.803,0.918c-2.359,0-4.559-0.641-6.359-2.641
			c-1.961-2.078-3.281-5.801-3.242-10.723c0.041-10.481,5.402-14.081,10.164-14.081c1.68,0,3,0.318,3.84,0.76l-0.68,2.641
			c-0.721-0.361-1.68-0.641-3.121-0.641c-3.359,0-7,2.68-7,11.043c0,8.321,3.16,11.001,6.398,11.001c1.043,0,1.641-0.199,1.883-0.32
			v-8.801h-3.48v-2.56h6.4V123.19z"/>
		<path d="M345.532,109.506c0-1.641-0.119-3.561-0.16-5h2.76l0.16,3.039h0.082c0.641-1.84,2.279-3.359,4.08-3.359
			c0.24,0,0.439,0.039,0.639,0.039v3.16c-0.199-0.039-0.398-0.039-0.639-0.039c-1.961,0-3.4,1.801-3.721,4.04
			c-0.08,0.52-0.121,1.121-0.121,1.762v10.723h-3.08V109.506z"/>
		<path d="M357.092,114.468c0.039,5.922,2.359,7.199,4.6,7.199c1.32,0,2.439-0.32,3.201-0.758l0.48,2.281
			c-1.082,0.598-2.723,0.918-4.242,0.918c-4.641,0-7.041-3.801-7.041-9.723c0-6.28,2.641-10.2,6.521-10.2
			c3.961,0,5.521,4.16,5.521,8.56c0,0.723,0,1.242-0.041,1.723H357.092z M363.172,112.187c0.08-3.88-1.4-5.601-2.881-5.601
			c-2,0-3.039,2.961-3.16,5.601H363.172z"/>
		<path d="M369.45,109.506c0-2.281-0.119-3.441-0.16-5h2.682l0.16,2.32h0.078c0.84-1.561,2.402-2.641,4.441-2.641
			c2.682,0,4.682,2,4.682,6.681v13.004h-3.08v-12.484c0-2.28-0.441-4.601-2.68-4.601c-1.281,0-2.523,1.08-2.922,3.16
			c-0.08,0.48-0.121,1.081-0.121,1.722v12.203h-3.08V109.506z"/>
		<path d="M397.534,114.187c0,7.48-3.48,10.004-6.441,10.004c-3.48,0-6.281-3.16-6.281-9.965c0-7.079,3.16-10.04,6.48-10.04
			C394.733,104.186,397.534,107.426,397.534,114.187z M387.891,114.187c0,3.203,0.561,7.563,3.361,7.563
			c2.641,0,3.16-4.563,3.16-7.563c0-2.961-0.52-7.521-3.242-7.521C388.411,106.666,387.891,111.226,387.891,114.187z"/>
		<path d="M400.768,123.87c0.041-1.121,0.16-3.32,0.16-4.641V96.184h3.082v10.602h0.08c1-1.92,2.439-2.6,4.08-2.6
			c3,0,5.281,3.48,5.281,9.802c0,7-2.879,10.203-5.881,10.203c-2.041,0-3.08-1.203-3.842-2.844h-0.119l-0.201,2.523H400.768z
			 M404.01,117.026c0,0.441,0,0.883,0.121,1.203c0.719,2.879,2.039,3.398,2.879,3.398c2.48,0,3.361-3.359,3.361-7.48
			c0-3.882-0.92-7.321-3.4-7.321c-1.441,0-2.641,1.799-2.881,3.439c-0.08,0.44-0.08,0.921-0.08,1.362V117.026z"/>
		<path d="M416.928,96.184h3.082v27.687h-3.082V96.184z"/>
		<path d="M426.729,114.468c0.039,5.922,2.359,7.199,4.602,7.199c1.32,0,2.439-0.32,3.199-0.758l0.48,2.281
			c-1.08,0.598-2.721,0.918-4.242,0.918c-4.641,0-7.039-3.801-7.039-9.723c0-6.28,2.641-10.2,6.52-10.2
			c3.961,0,5.523,4.16,5.523,8.56c0,0.723,0,1.242-0.041,1.723H426.729z M432.811,112.187c0.078-3.88-1.402-5.601-2.883-5.601
			c-2,0-3.039,2.961-3.16,5.601H432.811z"/>
		<path d="M448.85,115.788l-1.801,8.082h-2.961l6.16-26.966h3.402l6,26.966h-3.039l-1.801-8.082H448.85z M454.409,113.308
			l-1.398-6.843c-0.4-1.92-0.762-4.16-1.082-6.16h-0.16c-0.318,2.039-0.719,4.361-1.078,6.16l-1.402,6.843H454.409z"/>
		<path d="M462.608,110.547c0-2.961-0.119-4.682-0.16-6.041h2.762l0.16,2.48h0.08c1.041-2.082,2.561-2.801,4.08-2.801
			c3.361,0,5.602,3.6,5.602,9.962c0,7.16-2.961,10.043-6,10.043c-1.801,0-2.842-1.16-3.361-2.242h-0.08v9.602h-3.082V110.547z
			 M465.69,116.749c0,0.598,0,1.16,0.121,1.598c0.598,2.762,2,3.281,2.84,3.281c2.561,0,3.359-3.52,3.359-7.441
			c0-4.001-0.959-7.36-3.398-7.36c-1.402,0-2.641,1.76-2.842,3.52c-0.08,0.481-0.08,0.962-0.08,1.481V116.749z"/>
		<path d="M478.569,110.547c0-2.961-0.121-4.682-0.16-6.041h2.76l0.16,2.48h0.08c1.039-2.082,2.561-2.801,4.082-2.801
			c3.359,0,5.602,3.6,5.602,9.962c0,7.16-2.961,10.043-6.004,10.043c-1.799,0-2.84-1.16-3.359-2.242h-0.08v9.602h-3.08V110.547z
			 M481.649,116.749c0,0.598,0,1.16,0.119,1.598c0.602,2.762,2,3.281,2.842,3.281c2.561,0,3.361-3.52,3.361-7.441
			c0-4.001-0.961-7.36-3.402-7.36c-1.398,0-2.641,1.76-2.84,3.52c-0.08,0.481-0.08,0.962-0.08,1.481V116.749z"/>
		<path d="M494.567,96.184h3.08v27.687h-3.08V96.184z"/>
		<path d="M505.528,99.504c0.041,1.201-0.721,2-1.881,2c-1,0-1.76-0.799-1.76-2s0.799-2,1.799-2
			C504.807,97.504,505.528,98.303,505.528,99.504z M502.206,123.87v-19.364h3.082v19.364H502.206z"/>
		<path d="M511.727,114.468c0.041,5.922,2.361,7.199,4.6,7.199c1.32,0,2.441-0.32,3.203-0.758l0.479,2.281
			c-1.08,0.598-2.721,0.918-4.24,0.918c-4.641,0-7.043-3.801-7.043-9.723c0-6.28,2.641-10.2,6.523-10.2c3.961,0,5.52,4.16,5.52,8.56
			c0,0.723,0,1.242-0.039,1.723H511.727z M517.807,112.187c0.082-3.88-1.398-5.601-2.879-5.601c-2,0-3.043,2.961-3.16,5.601H517.807
			z"/>
		<path d="M535.729,96.184v23.046c0,1.32,0.119,3.52,0.16,4.641h-2.641l-0.201-2.441h-0.119c-0.641,1.398-2,2.762-4.041,2.762
			c-3.281,0-5.643-3.563-5.643-9.922c0-6.884,2.842-10.083,5.842-10.083c1.4,0,2.76,0.68,3.521,2.32h0.08V96.184H535.729z
			 M532.688,111.866c0-0.398,0-0.84-0.041-1.281c-0.199-1.999-1.398-3.759-2.879-3.759c-2.563,0-3.441,3.561-3.441,7.442
			c0,4.078,1.039,7.359,3.281,7.359c0.959,0,2.279-0.52,2.961-3.32c0.078-0.359,0.119-0.801,0.119-1.281V111.866z"/>
		<path d="M338.094,151.065h-6.76v10.125h7.68v2.68h-10.762v-26.965h10.281v2.68h-7.199v8.883h6.76V151.065z"/>
		<path d="M351.053,163.39c-0.68,0.398-1.84,0.719-3.199,0.719c-4.242,0-7.082-3.398-7.082-9.801c0-5.563,2.801-10.082,7.641-10.082
			c1.041,0,2.16,0.281,2.723,0.598l-0.602,2.523c-0.398-0.199-1.199-0.52-2.199-0.52c-3.082,0-4.48,3.68-4.48,7.48
			c0,4.52,1.719,7.242,4.559,7.242c0.84,0,1.521-0.203,2.242-0.52L351.053,163.39z"/>
		<path d="M365.334,154.187c0,7.48-3.48,10.004-6.441,10.004c-3.48,0-6.281-3.16-6.281-9.965c0-7.078,3.16-10.039,6.48-10.039
			C362.534,144.187,365.334,147.425,365.334,154.187z M355.692,154.187c0,3.203,0.561,7.563,3.361,7.563
			c2.641,0,3.16-4.563,3.16-7.563c0-2.961-0.52-7.52-3.242-7.52C356.211,146.667,355.692,151.226,355.692,154.187z"/>
		<path d="M368.77,149.507c0-2.281-0.119-3.441-0.16-5h2.682l0.16,2.32h0.078c0.84-1.563,2.402-2.641,4.441-2.641
			c2.682,0,4.682,2,4.682,6.68v13.004h-3.08v-12.484c0-2.281-0.441-4.602-2.68-4.602c-1.281,0-2.523,1.082-2.922,3.16
			c-0.08,0.48-0.121,1.082-0.121,1.723v12.203h-3.08V149.507z"/>
		<path d="M396.854,154.187c0,7.48-3.48,10.004-6.441,10.004c-3.48,0-6.281-3.16-6.281-9.965c0-7.078,3.16-10.039,6.48-10.039
			C394.053,144.187,396.854,147.425,396.854,154.187z M387.211,154.187c0,3.203,0.561,7.563,3.361,7.563
			c2.641,0,3.16-4.563,3.16-7.563c0-2.961-0.52-7.52-3.242-7.52C387.731,146.667,387.211,151.226,387.211,154.187z"/>
		<path d="M400.29,149.507c0-2.281-0.119-3.441-0.16-5h2.682l0.16,2.398h0.078c0.84-1.559,2.32-2.719,4.363-2.719
			c1.799,0,3.32,0.879,4.039,2.961h0.082c0.52-0.961,1.199-1.723,1.918-2.203c0.762-0.52,1.682-0.758,2.682-0.758
			c2.6,0,4.641,1.918,4.641,6.84v12.844h-3.041v-12.125c0-2.52-0.359-4.961-2.719-4.961c-1.281,0-2.402,1.082-2.842,2.883
			c-0.08,0.52-0.119,1.121-0.119,1.758v12.445h-3.043v-12.684c0-2.16-0.398-4.402-2.68-4.402c-1.238,0-2.52,1.082-2.879,3.121
			c-0.082,0.52-0.121,1.082-0.121,1.68v12.285h-3.041V149.507z"/>
		<path d="M428.411,139.503c0.041,1.203-0.721,2-1.881,2c-1,0-1.76-0.797-1.76-2c0-1.199,0.799-2,1.799-2
			C427.69,137.503,428.411,138.304,428.411,139.503z M425.088,163.87v-19.363h3.082v19.363H425.088z"/>
		<path d="M441.891,163.39c-0.682,0.398-1.842,0.719-3.201,0.719c-4.24,0-7.082-3.398-7.082-9.801
			c0-5.563,2.801-10.082,7.643-10.082c1.041,0,2.16,0.281,2.721,0.598l-0.602,2.523c-0.398-0.199-1.199-0.52-2.199-0.52
			c-3.082,0-4.48,3.68-4.48,7.48c0,4.52,1.719,7.242,4.561,7.242c0.84,0,1.521-0.203,2.24-0.52L441.891,163.39z"/>
		<path d="M444.008,160.667c0.68,0.441,1.881,1,3.119,1c1.762,0,2.842-1.078,2.842-2.801c0-1.477-0.521-2.48-2.48-3.801
			c-2.521-1.637-3.881-3.277-3.881-5.52c0-3.121,2.32-5.359,5.32-5.359c1.521,0,2.682,0.52,3.48,1l-0.84,2.32
			c-0.719-0.48-1.559-0.84-2.559-0.84c-1.682,0-2.521,1.199-2.521,2.438c0,1.32,0.479,2.043,2.4,3.363c2.24,1.438,4,3.199,4,5.879
			c0,3.883-2.641,5.762-5.801,5.762c-1.441,0-3-0.438-3.84-1.121L444.008,160.667z"/>
		<path d="M462.608,136.905h3.082v24.363h7.602v2.602h-10.684V136.905z"/>
		<path d="M483.651,163.87l-0.199-2.043h-0.121c-0.84,1.48-2.201,2.363-3.84,2.363c-2.602,0-4.602-2.203-4.602-5.523
			c0-4.84,3.879-7,8.242-7.039v-0.602c0-2.602-0.641-4.402-3.082-4.402c-1.199,0-2.281,0.402-3.199,1l-0.682-2.16
			c0.801-0.598,2.6-1.277,4.521-1.277c3.881,0,5.561,2.559,5.561,6.918v8.363c0,1.48,0,3.16,0.201,4.402H483.651z M483.209,153.866
			c-1.6,0-5.32,0.281-5.32,4.48c0,2.523,1.281,3.441,2.359,3.441c1.361,0,2.521-1,2.883-2.922c0.078-0.359,0.078-0.758,0.078-1.078
			V153.866z"/>
		<path d="M490.368,163.87c0.041-1.121,0.16-3.32,0.16-4.641v-23.047h3.08v10.602h0.082c1-1.918,2.439-2.598,4.08-2.598
			c3,0,5.281,3.48,5.281,9.801c0,7-2.881,10.203-5.881,10.203c-2.041,0-3.082-1.203-3.842-2.844h-0.119l-0.201,2.523H490.368z
			 M493.608,157.026c0,0.441,0,0.883,0.121,1.203c0.719,2.879,2.039,3.398,2.881,3.398c2.48,0,3.361-3.359,3.361-7.48
			c0-3.883-0.922-7.32-3.402-7.32c-1.439,0-2.641,1.797-2.879,3.438c-0.082,0.441-0.082,0.922-0.082,1.363V157.026z"/>
	</g>
</g>
<g>
	<g>
		<g>
			<g>
				<path fill="#010202" d="M52.08,136.478c0,9.48-2.224,16.574-6.67,21.283c-5.231,5.295-11.803,7.943-19.714,7.943
					c-7.454,0-13.731-2.549-18.831-7.65c-3.009-3.006-4.904-6.504-5.688-10.494C0.392,143.638,0,137.851,0,130.2
					s0.392-13.438,1.177-17.361c0.784-3.986,2.68-7.484,5.688-10.494c5.1-5.1,11.377-7.65,18.831-7.65
					c7.519,0,13.665,2.191,18.439,6.572c4.249,3.988,6.865,9.254,7.846,15.791h-13.73c-1.701-6.801-5.885-10.201-12.555-10.201
					c-3.662,0-6.571,1.244-8.729,3.729c-2.224,2.811-3.335,9.35-3.335,19.615c0,10.527,1.111,17.1,3.335,19.713
					c2.025,2.42,4.936,3.629,8.729,3.629c4.054,0,7.29-1.307,9.71-3.922c2.092-2.418,3.139-5.525,3.139-9.318v-2.648H25.696v-11.377
					H52.08V136.478z"/>
				<path fill="#010202" d="M92.783,95.185l25.501,69.932h-14.222l-4.12-12.357h-0.098l-12.162-36.977l-8.827,25.5h8.631
					l3.825,11.477H75.03l-4.217,12.357H56.592l25.402-69.932H92.783z"/>
				<path fill="#010202" d="M126.423,165.116V95.284h45.999v12.162h-32.366v16.379h27.561v12.162h-27.561v16.967h32.366v12.162
					H126.423z"/>
				<path fill="#010202" d="M185.76,165.116V95.284h13.633v57.67h31.68v12.162H185.76z"/>
			</g>
		</g>
	</g>
</g>
<path fill="#FFFFFF" d="M120.104,178.235c0.687,0.574,1.372,1.148,2.071,1.699c-0.115-0.094-0.237-0.199-0.352-0.289
	C121.228,179.157,120.654,178.687,120.104,178.235z"/>
<path fill="#FFFFFF" d="M118.039,176.493c-0.003-0.002-0.006-0.004-0.008-0.006C118.033,176.489,118.036,176.491,118.039,176.493z"
	/>
<path fill="#FFFFFF" d="M111.237,169.813c1.825,1.984,3.731,3.848,5.683,5.637c-0.35-0.354-0.688-0.703-1.017-1.012
	C112.86,171.423,111.237,169.813,111.237,169.813z"/>
<path fill="#4A6EB4" d="M108.197,166.22c1.982,2.344,3.04,3.594,3.04,3.594s-1.057-1.293-3.04-3.721V166.22z"/>
</svg>
